<svg version="1.1" id="Layer_1" xmlns="http://www.w3.org/2000/svg" xmlns:xlink="http://www.w3.org/1999/xlink" x="0px" y="0px"
	 width="100%" viewBox="0 0 96 96"  xml:space="preserve">
<path fill="#000000" opacity="1.000000" stroke="none" 
	d="
M61.000000,97.000000 
	C40.666672,97.000000 20.833340,97.000000 1.000008,97.000000 
	C1.000005,65.000008 1.000005,33.000019 1.000003,1.000021 
	C32.999985,1.000014 64.999969,1.000014 96.999969,1.000007 
	C96.999977,32.999981 96.999977,64.999962 96.999985,96.999969 
	C85.166664,97.000000 73.333336,97.000000 61.000000,97.000000 
M57.282211,24.974899 
	C54.880867,25.945202 52.479523,26.915506 49.736248,27.299664 
	C45.840664,20.671801 37.596935,17.041582 29.162651,19.204308 
	C17.214542,22.268049 14.916717,31.545444 16.041721,42.128887 
	C8.001149,44.784027 6.483662,46.879688 7.374972,54.157967 
	C6.373067,62.464664 8.502313,66.879272 14.228392,66.923149 
	C37.383568,67.100555 60.541283,67.066872 83.697121,66.939873 
	C88.514633,66.913445 91.061905,63.332603 91.001617,57.700073 
	C90.945778,52.481911 88.308861,49.440144 83.600990,48.976490 
	C81.774834,48.796642 79.976852,48.330688 78.895874,47.968399 
	C80.639709,46.314106 82.124557,44.094776 84.192245,43.147045 
	C86.839577,41.933632 91.918823,31.547964 90.442444,28.974947 
	C90.362000,28.834747 90.221848,28.725908 90.099846,28.612885 
	C86.735435,25.496172 89.317726,17.934162 81.997292,17.756571 
	C81.924377,17.754803 81.859955,17.471394 81.788765,17.320793 
	C80.203751,13.967498 78.444504,13.849423 74.393501,14.269393 
	C69.506706,14.776007 66.098549,15.161806 61.841885,18.402203 
	C58.993877,20.570257 57.932503,21.815098 57.282211,24.974899 
z"/>
<path fill="#019FC7" opacity="1.000000" stroke="none" 
	d="
M78.166031,47.995068 
	C79.976852,48.330688 81.774834,48.796642 83.600990,48.976490 
	C88.308861,49.440144 90.945778,52.481911 91.001617,57.700073 
	C91.061905,63.332603 88.514633,66.913445 83.697121,66.939873 
	C60.541283,67.066872 37.383568,67.100555 14.228392,66.923149 
	C8.502313,66.879272 6.373067,62.464664 7.787996,53.647812 
	C11.605079,51.774319 15.046351,50.494839 18.395748,49.008335 
	C19.830814,48.371437 21.297081,47.514637 22.362415,46.391045 
	C25.188879,43.410027 27.272242,38.761547 30.652096,37.535477 
	C34.120182,36.277401 38.773853,38.287586 42.908436,38.867382 
	C44.940277,35.755299 47.509228,31.820553 50.078178,27.885811 
	C52.479523,26.915506 54.880867,25.945202 58.083000,24.979233 
	C62.115852,25.459333 65.347923,25.935102 68.576035,26.394957 
	C68.572075,26.379042 68.575676,26.371452 68.748627,26.596523 
	C69.285683,26.899427 69.649788,26.977259 70.006775,27.023245 
	C69.999657,26.991400 69.938850,27.015108 70.098373,27.288279 
	C70.823112,27.841637 71.388313,28.121824 72.137604,28.663763 
	C74.584183,32.944393 76.846680,36.963276 79.050156,41.383125 
	C78.716103,43.854420 78.441071,45.924744 78.166031,47.995068 
M65.827728,38.309605 
	C66.075195,36.972084 66.322655,35.634563 66.393684,35.250664 
	C62.034622,39.614021 57.495361,44.157753 53.095009,48.562443 
	C53.705791,48.730389 55.135365,49.123478 56.632877,49.535248 
	C54.894310,53.269375 53.293365,56.707912 51.209366,61.183975 
	C56.853218,55.520279 61.429913,50.927498 65.903404,46.438278 
	C65.344727,46.285095 63.910656,45.891895 62.293480,45.448490 
	C63.428574,43.115952 64.442863,41.031651 65.827728,38.309605 
z"/>
<path fill="#094F77" opacity="1.000000" stroke="none" 
	d="
M49.907211,27.592737 
	C47.509228,31.820553 44.940277,35.755299 42.908436,38.867382 
	C38.773853,38.287586 34.120182,36.277401 30.652096,37.535477 
	C27.272242,38.761547 25.188879,43.410027 22.362415,46.391045 
	C21.297081,47.514637 19.830814,48.371437 18.395748,49.008335 
	C15.046351,50.494839 11.605079,51.774319 7.875946,53.228653 
	C6.483662,46.879688 8.001149,44.784027 16.041721,42.128887 
	C14.916717,31.545444 17.214542,22.268049 29.162651,19.204308 
	C37.596935,17.041582 45.840664,20.671801 49.907211,27.592737 
z"/>
<path fill="#DB9601" opacity="1.000000" stroke="none" 
	d="
M78.530960,47.981735 
	C78.441071,45.924744 78.716103,43.854420 79.334152,41.206635 
	C86.330849,34.572422 86.765068,27.876369 80.863998,22.327448 
	C75.830864,17.594667 69.152275,17.972727 65.079361,23.197657 
	C66.247993,24.270340 67.413986,25.340605 68.579987,26.410872 
	C65.347923,25.935102 62.115852,25.459333 58.461548,24.917538 
	C57.932503,21.815098 58.993877,20.570257 61.841885,18.402203 
	C66.098549,15.161806 69.506706,14.776007 74.393501,14.269393 
	C78.444504,13.849423 80.203751,13.967498 81.788765,17.320793 
	C81.859955,17.471394 81.924377,17.754803 81.997292,17.756571 
	C89.317726,17.934162 86.735435,25.496172 90.099846,28.612885 
	C90.221848,28.725908 90.362000,28.834747 90.442444,28.974947 
	C91.918823,31.547964 86.839577,41.933632 84.192245,43.147045 
	C82.124557,44.094776 80.639709,46.314106 78.530960,47.981735 
z"/>
<path fill="#F7B201" opacity="1.000000" stroke="none" 
	d="
M68.576035,26.394957 
	C67.413986,25.340605 66.247993,24.270340 65.079361,23.197657 
	C69.152275,17.972727 75.830864,17.594667 80.863998,22.327448 
	C86.765068,27.876369 86.330849,34.572422 79.393173,40.805672 
	C76.846680,36.963276 74.584183,32.944393 71.969177,28.387737 
	C71.057388,27.571678 70.498116,27.293392 69.938850,27.015108 
	C69.938850,27.015108 69.999657,26.991400 69.805946,26.837837 
	C69.266716,26.580000 68.921196,26.475725 68.575676,26.371452 
	C68.575676,26.371452 68.572075,26.379042 68.576035,26.394957 
z"/>
<path fill="#DEE9EC" opacity="1.000000" stroke="none" 
	d="
M65.642441,38.628479 
	C64.442863,41.031651 63.428574,43.115952 62.293480,45.448490 
	C63.910656,45.891895 65.344727,46.285095 65.903404,46.438278 
	C61.429913,50.927498 56.853218,55.520279 51.209366,61.183975 
	C53.293365,56.707912 54.894310,53.269375 56.632877,49.535248 
	C55.135365,49.123478 53.705791,48.730389 53.095009,48.562443 
	C57.495361,44.157753 62.034622,39.614021 66.393684,35.250664 
	C66.322655,35.634563 66.075195,36.972084 65.642441,38.628479 
z"/>
<path fill="#DB9601" opacity="1.000000" stroke="none" 
	d="
M70.098373,27.288279 
	C70.498116,27.293392 71.057388,27.571678 71.785088,28.125988 
	C71.388313,28.121824 70.823112,27.841637 70.098373,27.288279 
z"/>
<path fill="#DB9601" opacity="1.000000" stroke="none" 
	d="
M68.748627,26.596523 
	C68.921196,26.475725 69.266716,26.580000 69.813065,26.869682 
	C69.649788,26.977259 69.285683,26.899427 68.748627,26.596523 
z"/>
</svg>